<svg width="15" height="15" viewBox="0 0 15 15" fill="none" xmlns="http://www.w3.org/2000/svg">
<g id="bi:bricks" clip-path="url(#clip0_407_35222)">
<path id="Vector" d="M0.5 0.9375C0.5 0.821468 0.546094 0.710188 0.628141 0.628141C0.710188 0.546094 0.821468 0.5 0.9375 0.5H14.0625C14.1785 0.5 14.2898 0.546094 14.3719 0.628141C14.4539 0.710188 14.5 0.821468 14.5 0.9375V3.5625C14.5 3.67853 14.4539 3.78981 14.3719 3.87186C14.2898 3.95391 14.1785 4 14.0625 4H12.75V5.75H14.0625C14.1785 5.75 14.2898 5.79609 14.3719 5.87814C14.4539 5.96019 14.5 6.07147 14.5 6.1875V8.8125C14.5 8.92853 14.4539 9.03981 14.3719 9.12186C14.2898 9.20391 14.1785 9.25 14.0625 9.25H12.75V11H14.0625C14.1785 11 14.2898 11.0461 14.3719 11.1281C14.4539 11.2102 14.5 11.3215 14.5 11.4375V14.0625C14.5 14.1785 14.4539 14.2898 14.3719 14.3719C14.2898 14.4539 14.1785 14.5 14.0625 14.5H0.9375C0.821468 14.5 0.710188 14.4539 0.628141 14.3719C0.546094 14.2898 0.5 14.1785 0.5 14.0625V11.4375C0.5 11.3215 0.546094 11.2102 0.628141 11.1281C0.710188 11.0461 0.821468 11 0.9375 11H2.25V9.25H0.9375C0.821468 9.25 0.710188 9.20391 0.628141 9.12186C0.546094 9.03981 0.5 8.92853 0.5 8.8125V6.1875C0.5 6.07147 0.546094 5.96019 0.628141 5.87814C0.710188 5.79609 0.821468 5.75 0.9375 5.75H2.25V4H0.9375C0.821468 4 0.710188 3.95391 0.628141 3.87186C0.546094 3.78981 0.5 3.67853 0.5 3.5625V0.9375ZM3.125 4V5.75H7.0625V4H3.125ZM7.9375 4V5.75H11.875V4H7.9375ZM3.125 9.25V11H7.0625V9.25H3.125ZM7.9375 9.25V11H11.875V9.25H7.9375ZM1.375 1.375V3.125H4.4375V1.375H1.375ZM5.3125 1.375V3.125H9.6875V1.375H5.3125ZM10.5625 1.375V3.125H13.625V1.375H10.5625ZM1.375 6.625V8.375H4.4375V6.625H1.375ZM5.3125 6.625V8.375H9.6875V6.625H5.3125ZM10.5625 6.625V8.375H13.625V6.625H10.5625ZM1.375 11.875V13.625H4.4375V11.875H1.375ZM5.3125 11.875V13.625H9.6875V11.875H5.3125ZM10.5625 11.875V13.625H13.625V11.875H10.5625Z" fill="black"/>
</g>
<defs>
<clipPath id="clip0_407_35222">
<rect width="14" height="14" fill="white" transform="translate(0.5 0.5)"/>
</clipPath>
</defs>
</svg>
