<svg width="20" height="19" viewBox="0 0 20 19" fill="none" xmlns="http://www.w3.org/2000/svg">
<g id="arcticons:hammer">
<path id="Vector" d="M8.30054 8.09753L10.5556 10.3526L5.39908 15.5087C5.09996 15.8076 4.69441 15.9755 4.27155 15.9755C3.8487 15.9755 3.44314 15.8076 3.14402 15.5087C2.84514 15.2096 2.67725 14.804 2.67725 14.3812C2.67725 13.9583 2.84514 13.5528 3.14402 13.2537L8.30054 8.09753Z" stroke="white" stroke-width="0.7" stroke-linecap="round" stroke-linejoin="round"/>
<path id="Vector_2" d="M10.5559 10.3526L12.279 8.62995C12.6281 8.8057 12.9507 9.11049 13.2013 9.47545L12.9269 9.74937C12.8675 9.80877 12.8204 9.8793 12.7882 9.95693C12.756 10.0346 12.7395 10.1178 12.7395 10.2018C12.7395 10.2858 12.756 10.369 12.7882 10.4467C12.8204 10.5243 12.8675 10.5948 12.9269 10.6542L13.6636 11.3905C13.7835 11.5104 13.9462 11.5778 14.1158 11.5778C14.2854 11.5778 14.4481 11.5104 14.5681 11.3905L17.1358 8.82312C17.2558 8.70316 17.3231 8.54049 17.3231 8.37088C17.3231 8.20126 17.2558 8.03859 17.1358 7.91864L16.3996 7.18199C16.3402 7.1225 16.2696 7.0753 16.192 7.04309C16.1143 7.01089 16.031 6.99432 15.947 6.99432C15.8629 6.99432 15.7796 7.01089 15.702 7.04309C15.6243 7.0753 15.5537 7.1225 15.4943 7.18199L14.9995 7.67678L14.291 6.96824C14.291 6.96824 14.6769 5.95095 13.6949 4.96889C12.0161 3.28976 9.67715 1.93364 6.59005 4.28053C6.20728 4.57147 6.41232 5.19135 6.89286 5.20758C9.54098 5.29743 9.75671 6.64208 9.75671 6.64208L8.30084 8.09756" stroke="white" stroke-width="0.7" stroke-linecap="round" stroke-linejoin="round"/>
</g>
</svg>
