<svg width="17" height="17" viewBox="0 0 17 17" fill="none" xmlns="http://www.w3.org/2000/svg">
<g id="healthicons:electricity-outline">
<g id="Group">
<path id="Vector" d="M8.85449 4.25L6.72949 7.4375H8.14616V9.5625L10.2712 6.375H8.85449V4.25Z" fill="white"/>
<path id="Vector_2" fill-rule="evenodd" clip-rule="evenodd" d="M13.4267 6.82588C13.3191 7.73797 12.9525 8.60015 12.3702 9.31036C12.0295 9.72686 11.1635 10.9154 10.9794 11.6875H6.02104C5.83687 10.9147 4.96987 9.72579 4.62916 9.30929C4.04711 8.59877 3.68085 7.73633 3.57375 6.82411C3.46819 5.91381 3.62705 4.99238 4.03133 4.16998C4.43918 3.34116 5.07357 2.64488 5.86096 2.16186C6.65489 1.67364 7.56888 1.41565 8.50092 1.41669C9.43521 1.41669 10.3504 1.67523 11.1409 2.16292C11.9281 2.64614 12.5622 3.34254 12.9698 4.1714C13.3739 4.99397 13.5325 5.91553 13.4267 6.82588ZM10.4775 10.9792H6.52254C6.37167 10.631 6.17014 10.2822 5.98244 9.98575C5.73534 9.59625 5.4667 9.22084 5.17777 8.86127C4.68134 8.2555 4.36891 7.52014 4.27748 6.74229C4.18753 5.96708 4.32278 5.18237 4.66706 4.482C5.01608 3.7732 5.55886 3.17786 6.23248 2.765C6.9147 2.34558 7.70007 2.12401 8.50092 2.12502C9.30487 2.12502 10.0911 2.34779 10.7694 2.76607C11.4427 3.17903 11.9852 3.77436 12.3341 4.48306C12.6782 5.18361 12.8132 5.96845 12.7229 6.74371C12.6312 7.52139 12.3185 8.25649 11.8219 8.86198C11.5325 9.2211 11.264 9.59654 11.0176 9.98646C10.8299 10.2829 10.6284 10.631 10.4775 10.9792Z" fill="white"/>
<path id="Vector_3" d="M6.021 12.75C6.021 12.6561 6.05831 12.566 6.12473 12.4996C6.19115 12.4332 6.28123 12.3959 6.37516 12.3959H10.6252C10.7191 12.3959 10.8092 12.4332 10.8756 12.4996C10.942 12.566 10.9793 12.6561 10.9793 12.75C10.9793 12.844 10.942 12.9341 10.8756 13.0005C10.8092 13.0669 10.7191 13.1042 10.6252 13.1042H6.37516C6.28123 13.1042 6.19115 13.0669 6.12473 13.0005C6.05831 12.9341 6.021 12.844 6.021 12.75Z" fill="white"/>
<path id="Vector_4" fill-rule="evenodd" clip-rule="evenodd" d="M6.021 13.8125H10.9793V14.875C10.9793 15.0629 10.9047 15.243 10.7719 15.3759C10.639 15.5087 10.4589 15.5833 10.271 15.5833H6.72933C6.54147 15.5833 6.3613 15.5087 6.22846 15.3759C6.09562 15.243 6.021 15.0629 6.021 14.875V13.8125ZM6.72933 14.5208H10.271V14.875H6.72933V14.5208Z" fill="white"/>
</g>
</g>
</svg>
