<svg width="18" height="17" viewBox="0 0 18 17" fill="none" xmlns="http://www.w3.org/2000/svg">
<g id="ph:pipe-light">
<path id="Vector" d="M16.1562 7.03906H14.4297V3.58594H16.1562C16.2619 3.58594 16.3633 3.54396 16.438 3.46924C16.5127 3.39452 16.5547 3.29317 16.5547 3.1875C16.5547 3.08183 16.5127 2.98048 16.438 2.90576C16.3633 2.83104 16.2619 2.78906 16.1562 2.78906H14.3387C14.2634 2.6303 14.1446 2.49613 13.9962 2.40211C13.8478 2.30808 13.6757 2.25805 13.5 2.25781H12.4375C12.2618 2.25805 12.0897 2.30808 11.9413 2.40211C11.7929 2.49613 11.6741 2.6303 11.5988 2.78906H10.3125C8.51672 2.79117 6.79509 3.50548 5.52529 4.77529C4.25548 6.04509 3.54117 7.76672 3.53906 9.5625V10.8488C3.3803 10.9241 3.24613 11.0429 3.15211 11.1913C3.05808 11.3397 3.00805 11.5118 3.00781 11.6875V12.75C3.00805 12.9257 3.05808 13.0978 3.15211 13.2462C3.24613 13.3946 3.3803 13.5134 3.53906 13.5887V15.4062C3.53906 15.5119 3.58104 15.6133 3.65576 15.688C3.73048 15.7627 3.83183 15.8047 3.9375 15.8047C4.04317 15.8047 4.14452 15.7627 4.21924 15.688C4.29396 15.6133 4.33594 15.5119 4.33594 15.4062V13.6797H7.78906V15.4062C7.78906 15.5119 7.83104 15.6133 7.90576 15.688C7.98048 15.7627 8.08183 15.8047 8.1875 15.8047C8.29317 15.8047 8.39452 15.7627 8.46924 15.688C8.54396 15.6133 8.58594 15.5119 8.58594 15.4062V13.5887C8.7447 13.5134 8.87887 13.3946 8.97289 13.2462C9.06692 13.0978 9.11695 12.9257 9.11719 12.75V11.6875C9.11695 11.5118 9.06692 11.3397 8.97289 11.1913C8.87887 11.0429 8.7447 10.9241 8.58594 10.8488V9.5625C8.58594 9.10459 8.76784 8.66543 9.09164 8.34164C9.41543 8.01784 9.85459 7.83594 10.3125 7.83594H11.5988C11.6741 7.9947 11.7929 8.12887 11.9413 8.22289C12.0897 8.31692 12.2618 8.36695 12.4375 8.36719H13.5C13.6757 8.36695 13.8478 8.31692 13.9962 8.22289C14.1446 8.12887 14.2634 7.9947 14.3387 7.83594H16.1562C16.2619 7.83594 16.3633 7.79396 16.438 7.71924C16.5127 7.64452 16.5547 7.54317 16.5547 7.4375C16.5547 7.33183 16.5127 7.23048 16.438 7.15576C16.3633 7.08104 16.2619 7.03906 16.1562 7.03906ZM8.1875 11.5547C8.22272 11.5547 8.25651 11.5687 8.28141 11.5936C8.30632 11.6185 8.32031 11.6523 8.32031 11.6875V12.75C8.32031 12.7852 8.30632 12.819 8.28141 12.8439C8.25651 12.8688 8.22272 12.8828 8.1875 12.8828H3.9375C3.90228 12.8828 3.86849 12.8688 3.84359 12.8439C3.81868 12.819 3.80469 12.7852 3.80469 12.75V11.6875C3.80469 11.6523 3.81868 11.6185 3.84359 11.5936C3.86849 11.5687 3.90228 11.5547 3.9375 11.5547H8.1875ZM7.78906 9.5625V10.7578H4.33594V9.5625C4.3377 7.97796 4.96793 6.45882 6.08837 5.33837C7.20882 4.21793 8.72796 3.5877 10.3125 3.58594H11.5078V7.03906H10.3125C9.64324 7.03906 9.0014 7.30492 8.52816 7.77816C8.05492 8.2514 7.78906 8.89324 7.78906 9.5625ZM13.5 7.57031H12.4375C12.4023 7.57031 12.3685 7.55632 12.3436 7.53141C12.3187 7.50651 12.3047 7.47272 12.3047 7.4375V3.1875C12.3047 3.15228 12.3187 3.11849 12.3436 3.09359C12.3685 3.06868 12.4023 3.05469 12.4375 3.05469H13.5C13.5352 3.05469 13.569 3.06868 13.5939 3.09359C13.6188 3.11849 13.6328 3.15228 13.6328 3.1875V7.4375C13.6328 7.47272 13.6188 7.50651 13.5939 7.53141C13.569 7.55632 13.5352 7.57031 13.5 7.57031Z" fill="black"/>
</g>
</svg>
