<svg width="14" height="15" viewBox="0 0 14 15" fill="none" xmlns="http://www.w3.org/2000/svg">
<path id="Vector" d="M10.85 2.44444H11.65C12.534 2.44444 13.25 2.75167 13.25 3.61111V5.16667C13.25 5.57923 13.0814 5.97489 12.7814 6.26661C12.4813 6.55833 12.0743 6.72222 11.65 6.72222H6.05C5.83783 6.72222 5.63434 6.80417 5.48431 6.95003C5.33429 7.09589 5.25 7.29372 5.25 7.5V13.7222C5.25 13.9285 5.33429 14.1263 5.48431 14.2722C5.63434 14.4181 5.83783 14.5 6.05 14.5H6.85M10.85 2.44444V1.27778C10.85 1.0715 10.7657 0.873667 10.6157 0.727806C10.4657 0.581944 10.2622 0.5 10.05 0.5H2.05C1.83783 0.5 1.63434 0.581944 1.48431 0.727806C1.33429 0.873667 1.25 1.0715 1.25 1.27778V3.61111C1.25 3.81739 1.33429 4.01522 1.48431 4.16108C1.63434 4.30694 1.83783 4.38889 2.05 4.38889H10.05C10.2622 4.38889 10.4657 4.30694 10.6157 4.16108C10.7657 4.01522 10.85 3.81739 10.85 3.61111V2.44444Z" stroke="black" stroke-linecap="round" stroke-linejoin="round"/>
</svg>
